<svg xmlns="http://www.w3.org/2000/svg" xmlns:xlink="http://www.w3.org/1999/xlink" width="272" height="291" viewBox="0 0 272 291">
  <defs>
    <filter id="Rectangle_230" x="0" y="0" width="272" height="291" filterUnits="userSpaceOnUse">
      <feOffset dy="3" input="SourceAlpha"/>
      <feGaussianBlur stdDeviation="3" result="blur"/>
      <feFlood flood-color="#727272" flood-opacity="0.161"/>
      <feComposite operator="in" in2="blur"/>
      <feComposite in="SourceGraphic"/>
    </filter>
    <clipPath id="clip-path">
      <rect id="Rectangle_308" data-name="Rectangle 308" width="162" height="162" transform="translate(-0.262 -0.262)" fill="#054877"/>
    </clipPath>
  </defs>
  <g id="Component_21_1" data-name="Component 21 – 1" transform="translate(9 6)">
    <g id="Group_5808" data-name="Group 5808" transform="translate(-527 -931)">
      <g transform="matrix(1, 0, 0, 1, 518, 925)" filter="url(#Rectangle_230)">
        <rect id="Rectangle_230-2" data-name="Rectangle 230" width="254" height="273" rx="25" transform="translate(9 6)" fill="#fff" opacity="0.8"/>
      </g>
      <g id="Group_5665" data-name="Group 5665" transform="translate(604.817 985.776)">
        <text id="_20_" data-name="20+" transform="translate(23.183 135.225)" fill="#054877" font-size="37" font-family="Roboto-Bold, Roboto" font-weight="700"><tspan x="0" y="0">20</tspan><tspan y="0" font-size="21.582" baseline-shift="12.332099914550781">+</tspan></text>
        <text id="Services" transform="translate(50.183 158.225)" fill="#054877" font-size="18" font-family="Roboto-Regular, Roboto"><tspan x="-33" y="0">Services</tspan></text>
      </g>
      <g id="Rectangle_271" data-name="Rectangle 271" transform="translate(536 941)" fill="none" stroke="#c6b256" stroke-width="0.5">
        <rect width="236" height="253" rx="25" stroke="none"/>
        <rect x="0.25" y="0.25" width="235.5" height="252.5" rx="24.75" fill="none"/>
      </g>
    </g>
    <g id="Group_5819" data-name="Group 5819" transform="translate(46.554 11.554)">
      <g id="Group_5818" data-name="Group 5818" transform="translate(-0.293 -0.293)" clip-path="url(#clip-path)">
        <path id="Path_38721" data-name="Path 38721" d="M69.492,58.26a7.727,7.727,0,1,0,7.726,7.729,7.737,7.737,0,0,0-7.726-7.729m0,12.1a4.377,4.377,0,1,1,4.375-4.375,4.381,4.381,0,0,1-4.375,4.375" transform="translate(42.031 39.665)" fill="#054877"/>
        <path id="Path_38722" data-name="Path 38722" d="M102.1,77.739V61.277a22.679,22.679,0,1,0-3.35.017V77.72a22.473,22.473,0,0,0-12.51,4.816L54.595,54.877a22.525,22.525,0,0,0,6.7-14.445h2.027v-3.35H61.292a22.6,22.6,0,1,0-24.2,24.2V77.729a22.6,22.6,0,1,0,24.2,24.205H77.714a22.6,22.6,0,1,0,24.383-24.2M91.678,53v2.983a19.249,19.249,0,0,1-3.111-1.943V48.709a3.222,3.222,0,0,1,3.218-3.22h17a3.224,3.224,0,0,1,3.22,3.22v5.267a19.2,19.2,0,0,1-3.111,1.968V53h-3.35V57.26a18.85,18.85,0,0,1-10.52.023V53Zm-10.7-14.245a19.264,19.264,0,1,1,34.378,11.9V48.709a6.579,6.579,0,0,0-6.57-6.57h-17a6.577,6.577,0,0,0-6.568,6.57v2.07a19.156,19.156,0,0,1-4.236-12.022m2.781,46.066a22.511,22.511,0,0,0-6.047,13.761H61.292A22.617,22.617,0,0,0,40.438,77.729V61.286A22.442,22.442,0,0,0,52,57.054ZM30.2,53v2.983a19.264,19.264,0,0,1-3.112-1.943V48.709a3.224,3.224,0,0,1,3.22-3.22h17a3.224,3.224,0,0,1,3.22,3.22v5.267a19.4,19.4,0,0,1-3.112,1.968V53h-3.35V57.26a18.844,18.844,0,0,1-10.518.023V53ZM19.5,38.757a19.264,19.264,0,1,1,34.38,11.9V48.709a6.577,6.577,0,0,0-6.57-6.57h-17a6.577,6.577,0,0,0-6.57,6.57v2.07A19.166,19.166,0,0,1,19.5,38.757m14.049,80.029V114.5H30.2v2.985a19.262,19.262,0,0,1-3.112-1.943v-5.335a3.223,3.223,0,0,1,3.22-3.22h17a3.223,3.223,0,0,1,3.22,3.22v5.268a19.4,19.4,0,0,1-3.112,1.968V114.5h-3.35v4.26a18.844,18.844,0,0,1-10.518.023m20.331-6.625v-1.952a6.577,6.577,0,0,0-6.57-6.57h-17a6.577,6.577,0,0,0-6.57,6.57v2.072a19.267,19.267,0,1,1,30.144-.121m41.149,6.625V114.5h-3.35v2.985a19.365,19.365,0,0,1-3.111-1.943v-5.335a3.221,3.221,0,0,1,3.218-3.22h17a3.223,3.223,0,0,1,3.22,3.22v5.268a19.309,19.309,0,0,1-3.111,1.968V114.5h-3.35v4.26a18.85,18.85,0,0,1-10.52.023m20.331-6.623v-1.953a6.579,6.579,0,0,0-6.57-6.57h-17a6.577,6.577,0,0,0-6.568,6.57v2.07a19.267,19.267,0,1,1,30.142-.117" transform="translate(11.235 11.231)" fill="#054877"/>
        <path id="Path_38723" data-name="Path 38723" d="M32.79,58.26a7.727,7.727,0,1,0,7.727,7.729A7.737,7.737,0,0,0,32.79,58.26m0,12.1a4.377,4.377,0,1,1,4.377-4.375,4.381,4.381,0,0,1-4.377,4.375" transform="translate(17.253 39.665)" fill="#054877"/>
        <path id="Path_38724" data-name="Path 38724" d="M69.492,37a7.727,7.727,0,1,0-7.727-7.727A7.736,7.736,0,0,0,69.492,37m0-12.1a4.377,4.377,0,1,1-4.377,4.377A4.38,4.38,0,0,1,69.492,24.9" transform="translate(42.031 14.879)" fill="#054877"/>
        <path id="Path_38725" data-name="Path 38725" d="M32.79,37a7.727,7.727,0,1,0-7.727-7.727A7.737,7.737,0,0,0,32.79,37m0-12.1a4.377,4.377,0,1,1-4.377,4.377A4.382,4.382,0,0,1,32.79,24.9" transform="translate(17.253 14.879)" fill="#054877"/>
        <rect id="Rectangle_302" data-name="Rectangle 302" width="3.35" height="3.35" transform="translate(84.605 48.313)" fill="#054877"/>
        <rect id="Rectangle_303" data-name="Rectangle 303" width="3.35" height="3.35" transform="translate(77.904 48.313)" fill="#054877"/>
        <rect id="Rectangle_304" data-name="Rectangle 304" width="3.35" height="3.35" transform="translate(84.47 75.496) rotate(-45)" fill="#054877"/>
        <rect id="Rectangle_305" data-name="Rectangle 305" width="3.35" height="3.35" transform="translate(89.207 70.758) rotate(-45)" fill="#054877"/>
        <rect id="Rectangle_306" data-name="Rectangle 306" width="3.352" height="3.35" transform="translate(72.459 87.501) rotate(-45)" fill="#054877"/>
        <rect id="Rectangle_307" data-name="Rectangle 307" width="3.35" height="3.35" transform="translate(67.723 92.238) rotate(-45)" fill="#054877"/>
      </g>
    </g>
  </g>
</svg>
